# AST/ASF file generated using VICON BodyLanguage
# -----------------------------------------------
:version 1.10
:name VICON
:units
  mass 1.0
  length 0.45
  angle deg
:documentation
   .ast/.asf automatically generated from VICON data using
   VICON BodyBuilder and BodyLanguage model FoxedUp or BRILLIANT.MOD
:root
   order TX TY TZ RX RY RZ
   axis XYZ
   position 0 0 0  
   orientation 0 0 0 
:bonedata
  begin
     id 1 
     name lhipjoint
     direction 0.588788 -0.725889 0.355548 
     length 2.37778 
     axis 0 0 0  XYZ
  end
  begin
     id 2 
     name lfemur
     direction 0.34202 -0.939693 0  
     length 6.86393  
     axis 0 0 20  XYZ
    dof rx ry rz
    limits (-160.0 20.0)
           (-70.0 70.0)
           (-60.0 70.0)
  end
  begin
     id 3 
     name ltibia
     direction 0.34202 -0.939693 0   
     length 7.32851   
     axis 0 0 20   XYZ
    dof rx
    limits (-10.0 170.0)
  end
  begin
     id 4 
     name lfoot
     direction 0.0626533 -0.172138 0.983078   
     length 1.98929   
     axis -90 7.62852e-016 20   XYZ
    dof rx rz
    limits (-45.0 90.0)
           (-70.0 20.0)
  end
  begin
     id 5 
     name ltoes
     direction 1.53647e-011 -4.21734e-011 1   
     length 1.00479   
     axis -90 7.62852e-016 20   XYZ
    dof rx
    limits (-90.0 20.0)
  end
  begin
     id 6 
     name rhipjoint
     direction -0.59141 -0.724168 0.354705   
     length 2.38343  
     axis 0 0 0  XYZ 
  end
  begin
     id 7 
     name rfemur
     direction -0.34202 -0.939693 0   
     length 6.95589   
     axis 0 0 -20   XYZ
    dof rx ry rz
    limits (-160.0 20.0)
           (-70.0 70.0)
           (-70.0 60.0)
  end
  begin
     id 8 
     name rtibia
     direction -0.34202 -0.939693 0   
     length 7.32327   
     axis 0 0 -20   XYZ
    dof rx
    limits (-10.0 170.0)
 end
 begin
     id 9 
     name rfoot
     direction -0.0660461 -0.18146 0.981178   
     length 1.85272  
     axis -90 -7.62852e-016 -20   XYZ
    dof rx rz
    limits (-45.0 90.0)
           (-20.0 70.0)
  end
  begin
     id 10 
     name rtoes
     direction -1.53586e-011 -4.21988e-011 1   
     length 0.93746   
     axis -90 -7.62852e-016 -20   XYZ
    dof rx
    limits (-90.0 20.0)
  end
  begin
     id 11 
     name lowerback
     direction -0.0107982 0.991059 0.13299   
     length 1.98691   
     axis 0 0 0   XYZ
    dof rx ry rz
    limits (-20.0 45.0)
           (-30.0 30.0)
           (-30.0 30.0)
  end
  begin
     id 12 
     name upperback
     direction 0.0076296 0.999916 0.0104576   
     length 1.99501   
     axis 0 0 0   XYZ
    dof rx ry rz
    limits (-20.0 45.0)
           (-30.0 30.0)
           (-30.0 30.0)
  end
  begin
     id 13 
     name thorax
     direction 0.01176 0.998615 -0.0512909   
     length 2.03144   
     axis 0 0 0   XYZ
    dof rx ry rz
    limits (-20.0 45.0)
           (-30.0 30.0)
           (-30.0 30.0)
  end
  begin
     id 14 
     name lowerneck
     direction -0.0171909 0.999644 0.0204011   
     length 1.71818   
     axis 0 0 0   XYZ
    dof rx ry rz
    limits (-20.0 45.0)
           (-30.0 30.0)
           (-30.0 30.0)
  end
  begin
     id 15 
     name upperneck
     direction 0.0250902 0.997482 -0.0663316   
     length 1.66199   
     axis 0 0 0   XYZ
    dof rx ry rz
    limits (-20.0 45.0)
           (-30.0 30.0)
           (-30.0 30.0)
  end
  begin
     id 16
     name head
     direction 0.00881535 0.99956 -0.0283365  
     length 1.81545  
     axis 0 0 0   XYZ
    dof rx ry rz
    limits (-20.0 45.0)
           (-30.0 30.0)
           (-30.0 30.0)
  end
  begin
     id 17 
     name lclavicle
     direction 0.840411 0.486876 -0.238035  
     length 3.30409  
     axis 0 0 0   XYZ
    dof ry rz
    limits (-20.0 10.0)
           (0.0 20.0)
  end
  begin
     id 18 
     name lhumerus
     direction 1 -4.48977e-011 -5.16239e-027   
     length 4.62672   
     axis 180 -30 -90   XYZ
    dof rx ry rz
    limits (-60.0 90.0)
           (-90.0 90.0)
           (-90.0 90.0)
  end
  begin
     id 19
     name lradius
     direction 1 -4.48977e-011 -8.71171e-027   
     length 3.11018   
     axis 180 -30 -90   XYZ
    dof rx
    limits (-10.0 170.0)
  end
  begin
     id 20
     name lwrist
     direction 1 -4.48912e-011 -1.03764e-026   
     length 1.55509   
     axis 9.09556e-015 90 90   XYZ
    dof ry
    limits (-180.0 0.0)
 end
  begin
     id 21 
     name lhand
     direction 1 -4.49072e-011 -2.07528e-026   
     length 0.743834   
     axis 1.3242e-014 90 90   XYZ
    dof rx rz
    limits (-90.0 90.0)
           (-45.0 45.0)
  end
  begin
     id 22 
     name lfingers
     direction 1 -4.48909e-011 -4.15056e-026   
     length 0.599698   
     axis 2.64841e-014 90 90   XYZ
    dof rx
    limits (0.0 90.0)
  end
  begin
     id 23
     name lthumb
     direction 0.707107 -6.35013e-011 0.707107   
     length 0.86105   
     axis -90 45 2.85299e-015   XYZ
    dof rx rz
    limits (-45.0 45.0)
           (-45.0 45.0)
  end
  begin
     id 24 
     name rclavicle
     direction -0.835208 0.500237 -0.228452   
     length 3.2716  
     axis 0 0 0   XYZ 
    dof ry rz
    limits (-10.0 20.0)
           (-20.0 0.0)
  end
  begin
     id 25 
     name rhumerus
     direction -1 -4.48978e-011 -5.1953e-028  
     length 4.55919   
     axis 180 30 90   XYZ
    dof rx ry rz
    limits (-90.0 60.0)
           (-90.0 90.0)
           (-90.0 90.0)
  end
  begin
     id 26 
     name rradius
     direction -1 -4.48961e-011 -5.99546e-027   
     length 3.22748   
     axis 180 30 90   XYZ
    dof rx
    limits (-10.0 170.0)
  end
  begin
     id 27 
     name rwrist
     direction -1 -4.48986e-011 -1.03764e-026   
     length 1.61374   
     axis 9.09556e-015 -90 -90   XYZ
    dof ry
    limits (-180.0 0.0)
  end
  begin
     id 28
     name rhand
     direction -1 -4.4899e-011 -2.07528e-026   
     length 0.700882   
     axis 1.3242e-014 -90 -90   XYZ
    dof rx rz
    limits (-90.0 90.0)
           (-45.0 45.0)
  end
  begin
     id 29
     name rfingers
     direction -1 -4.48991e-011 -4.15056e-026   
     length 0.565069   
     axis 2.64841e-014 -90 -90   XYZ
    dof rx
    limits (0.0 90.0)
  end
  begin
     id 30
     name rthumb
     direction -0.707107 -6.34804e-011 0.707107   
     length 0.811329   
     axis -90 -45 -2.85299e-015   XYZ
    dof rx rz
    limits (-45.0 45.0)
           (-45.0 45.0)
  end
:hierarchy
  begin
    root lhipjoint rhipjoint lowerback
    lhipjoint lfemur
    lfemur ltibia
    ltibia lfoot
    lfoot ltoes
    rhipjoint rfemur
    rfemur rtibia
    rtibia rfoot
    rfoot rtoes
    lowerback upperback
    upperback thorax
    thorax lowerneck lclavicle rclavicle
    lowerneck upperneck
    upperneck head
    lclavicle lhumerus
    lhumerus lradius
    lradius lwrist
    lwrist lhand lthumb
    lhand lfingers
    rclavicle rhumerus
    rhumerus rradius
    rradius rwrist
    rwrist rhand rthumb
    rhand rfingers
  end

#!OML:ASF F:\VICON\USERDATA\INSTALL\SteveWalk\SteveWalk.ASF
:FULLY-SPECIFIED
:DEGREES
331
root 0.754684 15.8011 27.314 17.6668 6.26803 3.21344
lowerback -15.7433 -3.11595 -1.45277
upperback -4.41251 -3.92374 0.931007
thorax 4.27912 -1.94117 1.04727
lowerneck -5.15905 -1.4753 -1.02844
upperneck 9.84479 -2.05647 1.58901
head 4.18013 -0.980017 0.605958
rclavicle 1.84994e-014 5.96354e-015
rhumerus -92.6706 -35.9591 0.0775686
rradius 10.6362
rwrist 60.9993
rhand -12.6663 -34.9326
rfingers 7.12502
rthumb 13.4148 -64.4807
lclavicle 1.84994e-014 5.96354e-015
lhumerus -14.2151 -8.66932 85.027
lradius 57.7001
lwrist 7.35467
lhand -21.0039 -21.0487
lfingers 7.12502
lthumb 5.37061 8.86325
rfemur -48.5209 -5.34397 18.4168
rtibia 17.0009
rfoot -9.75153 -0.247238
rtoes -29.5018
lfemur -1.13213 -1.60184 -22.0246
ltibia 23.3421
lfoot -21.4721 -7.77378
ltoes -23.9156
332
root 0.743211 15.7841 27.5629 17.5832 5.95787 3.22993
lowerback -15.8488 -3.07097 -1.30793
upperback -4.46571 -3.88932 1.00046
thorax 4.27382 -1.92317 1.04202
lowerneck -5.10604 -1.35539 -0.991768
upperneck 9.92853 -1.86723 1.2708
head 4.19135 -0.900306 0.503121
rclavicle 4.22417e-016 1.19271e-015
rhumerus -93.399 -35.9272 1.85909
rradius 10.582
rwrist 62.4766
rhand -12.7645 -34.8036
rfingers 7.12502
rthumb 13.3202 -64.3578
lclavicle 4.22417e-016 1.19271e-015
lhumerus -14.9927 -8.11766 85.06
lradius 58.921
lwrist 7.47953
lhand -21.168 -21.0613
lfingers 7.12502
lthumb 5.21216 8.85461
rfemur -48.7727 -5.09992 18.5724
rtibia 19.3896
rfoot -9.7503 -0.340804
rtoes -30.3126
lfemur -0.509311 -2.03964 -22.063
ltibia 23.8153
lfoot -20.378 -7.79577
ltoes -25.1935
333
root 0.735847 15.7711 27.8193 17.5671 5.61493 3.41524
lowerback -16.0367 -3.03391 -1.24712
upperback -4.59362 -3.84658 0.992607
thorax 4.23324 -1.90086 1.00277
lowerneck -4.55465 -1.20273 -0.947905
upperneck 9.68203 -1.63399 0.939713
head 3.98527 -0.801072 0.399769
rclavicle -4.03781e-015 -4.37326e-015
rhumerus -94.356 -35.7856 3.94783
rradius 10.537
rwrist 64.1709
rhand -13.1632 -34.4587
rfingers 7.12502
rthumb 12.9359 -64.0377
lclavicle -4.03781e-015 -4.37326e-015
lhumerus -15.93 -7.58994 85.1172
lradius 59.9373
lwrist 7.67084
lhand -21.4619 -21.1231
lfingers 7.12502
lthumb 4.92839 8.79955
rfemur -49.2371 -5.12034 18.6516
rtibia 21.6678
rfoot -7.976 -0.13592
rtoes -35.1884
lfemur 0.184927 -2.35293 -22.3346
ltibia 24.2882
lfoot -19.4456 -7.00649
ltoes -29.2411
334
root 0.727471 15.769 28.0725 17.6557 5.29285 3.53526
lowerback -16.2382 -2.96532 -1.12484
upperback -4.67286 -3.77551 1.03929
thorax 4.2504 -1.86474 0.989866
lowerneck -4.34906 -1.12925 -1.07032
upperneck 9.52825 -1.49637 0.638185
head 3.88633 -0.751496 0.32913
rclavicle 2.35063e-014 -5.56597e-015
rhumerus -94.9255 -35.8885 5.39486
rradius 10.5052
rwrist 65.3653
rhand -13.3631 -34.3583
rfingers 7.12502
rthumb 12.7431 -63.9495
lclavicle 2.35063e-014 -5.56597e-015
lhumerus -16.6635 -7.06447 85.2888
lradius 60.7956
lwrist 7.85107
lhand -21.7965 -21.4439
lfingers 7.12502
lthumb 4.6053 8.48605
rfemur -49.8604 -4.82724 18.3968
rtibia 23.6648
rfoot -6.12874 0.421193
rtoes -39.4251
lfemur 0.520609 -2.643 -22.5435
ltibia 25.0522
lfoot -17.8671 -7.07023
ltoes -30.325
335
root 0.715237 15.7718 28.3208 17.7695 5.01771 3.25967
lowerback -16.4204 -2.84603 -0.625999
upperback -4.70064 -3.70606 1.19481
thorax 4.29607 -1.82833 0.879101
lowerneck -4.71019 -1.06959 -1.15116
upperneck 9.71996 -1.37599 0.333086
head 4.02255 -0.708318 0.245867
rclavicle -1.73937e-015 8.74653e-015
rhumerus -95.605 -36.2115 6.93003
rradius 10.4775
rwrist 66.7006
rhand -13.4546 -34.4886
rfingers 7.12502
rthumb 12.6549 -64.0852
lclavicle -1.73937e-015 8.74653e-015
lhumerus -17.3628 -6.50517 85.4312
lradius 61.6411
lwrist 8.11439
lhand -22.3173 -21.6669
lfingers 7.12502
lthumb 4.1024 8.27334
rfemur -50.4281 -3.95556 18.112
rtibia 25.3778
rfoot -5.12208 1.06245
rtoes -36.8145
lfemur 0.37003 -2.89598 -22.3056
ltibia 26.3772
lfoot -15.4209 -8.14551
ltoes -27.1657
336
root 0.70368 15.7681 28.563 17.8544 4.71375 2.72244
lowerback -16.5639 -2.68587 0.130808
upperback -4.71042 -3.632 1.43071
thorax 4.33008 -1.78862 0.710332
lowerneck -5.32528 -0.950152 -1.04126
upperneck 9.98229 -1.17322 -0.10244
head 4.23316 -0.624716 0.0878205
rclavicle -4.24033e-014 -2.38542e-015
rhumerus -97.128 -36.641 9.9393
rradius 10.4218
rwrist 69.3067
rhand -13.5407 -34.5852
rfingers 7.12502
rthumb 12.5719 -64.187
lclavicle -4.24033e-014 -2.38542e-015
lhumerus -18.1627 -5.63796 85.5999
lradius 62.4441
lwrist 8.24822
lhand -22.613 -21.9903
lfingers 7.12502
lthumb 3.81687 7.95525
rfemur -50.7918 -2.91221 18.0549
rtibia 26.9714
rfoot -4.51509 1.58716
rtoes -29.3457
lfemur -0.167359 -2.98699 -21.8283
ltibia 28.3441
lfoot -12.7489 -8.9997
ltoes -24.4623
337
root 0.692153 15.764 28.8006 17.9078 4.3735 2.13139
lowerback -16.5363 -2.51391 0.946539
upperback -4.87798 -3.54746 1.64939
thorax 4.10157 -1.74561 0.504635
lowerneck -5.34046 -0.769883 -0.826159
upperneck 9.99958 -0.904123 -0.550323
head 4.23692 -0.505323 -0.0860126
rclavicle -3.16813e-014 -7.95139e-016
rhumerus -97.9041 -36.8332 11.6008
rradius 10.4203
rwrist 70.965
rhand -13.7464 -34.7996
rfingers 7.12502
rthumb 12.3737 -64.4134
lclavicle -3.16813e-014 -7.95139e-016
lhumerus -19.3911 -4.85757 85.709
lradius 63.236
lwrist 8.43354
lhand -22.9234 -22.1218
lfingers 7.12502
lthumb 3.51711 7.82892
rfemur -51.0052 -2.08267 18.3764
rtibia 28.5986
rfoot -4.11249 1.8183
rtoes -25.9201
lfemur -1.03139 -2.75871 -21.2882
ltibia 30.8735
lfoot -10.068 -9.72144
ltoes -23.1498
338
root 0.682562 15.7597 29.0332 17.9713 4.03315 1.69479
lowerback -16.3522 -2.38206 1.65701
upperback -5.09616 -3.48871 1.82885
thorax 3.74103 -1.71955 0.319632
lowerneck -5.16341 -0.587427 -0.731417
upperneck 9.91478 -0.628262 -0.95576
head 4.16874 -0.384281 -0.222629
rclavicle -4.60311e-015 -7.15625e-015
rhumerus -98.2142 -37.1133 12.5256
rradius 10.4342
rwrist 72.0009
rhand -14.0274 -34.9735
rfingers 7.12502
rthumb 12.1027 -64.6035
lclavicle -4.60311e-015 -7.15625e-015
lhumerus -20.6602 -4.13553 85.7695
lradius 63.7788
lwrist 8.53848
lhand -23.2116 -22.1875
lfingers 7.12502
lthumb 3.23875 7.76766
rfemur -51.1907 -1.65084 18.8764
rtibia 30.3055
rfoot -4.22777 1.98542
rtoes -27.5186
lfemur -2.14929 -2.44119 -20.943
ltibia 33.718
lfoot -7.02469 -10.2759
ltoes -22.7389
339
root 0.672139 15.7501 29.2629 17.9249 3.60204 1.33937
lowerback -16.0675 -2.19898 2.2462
upperback -5.10114 -3.3389 1.94996
thorax 3.55765 -1.64822 0.156413
lowerneck -5.61981 -0.490297 -0.680163
upperneck 9.92314 -0.462461 -1.28679
head 4.2631 -0.317607 -0.335883
rclavicle 1.05729e-014 1.74931e-014
rhumerus -99.2193 -37.7795 14.3107
rradius 10.4432
rwrist 73.5818
rhand -14.4432 -34.6322
rfingers 7.12502
rthumb 11.7017 -64.2854
lclavicle 1.05729e-014 1.74931e-014
lhumerus -21.6688 -3.52858 85.8368
lradius 64.287
lwrist 8.74101
lhand -23.1098 -22.3207
lfingers 7.12502
lthumb 3.3371 7.63297
rfemur -51.214 -1.21842 19.385
rtibia 32.0357
rfoot -5.01114 1.9518
rtoes -29.7483
lfemur -3.30383 -1.83054 -20.6715
ltibia 36.6307
lfoot -2.93791 -10.8876
ltoes -19.4306
340
root 0.66554 15.7455 29.497 17.6941 3.0501 0.791004
lowerback -16.0213 -1.94892 3.08852
upperback -4.81457 -3.15566 2.04944
thorax 3.79658 -1.55252 -0.183112
lowerneck -6.16701 -0.368837 -0.435733
upperneck 9.78831 -0.275593 -1.70048
head 4.3255 -0.23743 -0.509825
rclavicle 7.11898e-015 -2.22639e-014
rhumerus -100.776 -38.7554 16.6846
rradius 10.4439
rwrist 75.4749
rhand -15.0664 -34.2505
rfingers 7.12502
rthumb 11.1007 -63.9369
lclavicle 7.11898e-015 -2.22639e-014
lhumerus -22.4511 -2.77134 85.7913
lradius 64.7438
lwrist 8.77356
lhand -23.0063 -22.4017
lfingers 7.12502
lthumb 3.43706 7.55031
rfemur -51.0096 -0.788742 20.1579
rtibia 33.6016
rfoot -5.81046 2.38915
rtoes -28.3221
lfemur -4.31757 -1.04592 -20.2177
ltibia 39.5248
lfoot 1.85704 -11.0515
ltoes -12.8942
341
root 0.658431 15.7571 29.7363 17.3401 2.42347 0.274038
lowerback -16.2405 -1.70225 3.84678
upperback -4.49852 -2.97999 2.12673
thorax 4.21619 -1.45332 -0.50969
lowerneck -5.55569 -0.232553 -0.396693
upperneck 9.12547 -0.095092 -1.88136
head 3.96694 -0.148034 -0.560308
rclavicle -1.05853e-014 -2.38542e-014
rhumerus -101.418 -39.6542 17.6587
rradius 10.4219
rwrist 76.408
rhand -15.5204 -33.9225
rfingers 7.12502
rthumb 10.6628 -63.632
lclavicle -1.05853e-014 -2.38542e-014
lhumerus -23.3647 -2.0389 85.7
lradius 64.9361
lwrist 8.87372
lhand -23.2038 -22.5161
lfingers 7.12502
lthumb 3.24631 7.43896
rfemur -50.5054 -0.268005 20.806
rtibia 34.8917
rfoot -6.39664 3.31183
rtoes -22.9988
lfemur -5.19026 -0.262702 -19.794
ltibia 42.3442
lfoot 6.33225 -10.9181
ltoes -7.03306
